<?xml version="1.0" standalone="no"?><!DOCTYPE svg PUBLIC "-//W3C//DTD SVG 1.1//EN" "http://www.w3.org/Graphics/SVG/1.1/DTD/svg11.dtd"><svg t="1734265564338" class="icon" viewBox="0 0 1024 1024" version="1.1" xmlns="http://www.w3.org/2000/svg" p-id="2380" width="32" height="32" xmlns:xlink="http://www.w3.org/1999/xlink"><path d="M888.149333 302.421333L637.44 111.616a176.059733 176.059733 0 0 0-106.837333-36.010667c-37.717333 0-75.264 11.946667-106.837334 36.010667l-250.88 190.805333c-22.016 16.725333-34.816 42.666667-34.816 70.314667v367.616c0 89.429333 72.533333 161.792 161.792 161.792H761.173333c89.429333 0 161.792-72.533333 161.792-161.792V372.736c0.170667-27.648-12.8-53.589333-34.816-70.314667z m-33.28 437.76c0 51.541333-41.984 93.525333-93.525333 93.525334H299.861333c-51.541333 0-93.525333-41.984-93.525333-93.525334V372.736c0-6.144 2.901333-12.117333 7.850667-15.872l250.88-190.805333c18.944-14.506667 41.642667-22.186667 65.536-22.186667s46.592 7.68 65.536 22.186667l250.88 190.805333c4.949333 3.754667 7.850667 9.728 7.850666 15.872v367.445333z" fill="#e6e6e6" p-id="2381"></path><path d="M530.432 456.021333c-90.794667 0-164.693333 73.898667-164.693333 164.693334v114.517333c0 18.773333 15.36 34.133333 34.133333 34.133333s34.133333-15.36 34.133333-34.133333v-114.517333c0-53.077333 43.178667-96.426667 96.426667-96.426667s96.426667 43.178667 96.426667 96.426667v114.517333c0 18.773333 15.36 34.133333 34.133333 34.133333s34.133333-15.36 34.133333-34.133333v-114.517333c0-90.794667-73.728-164.693333-164.693333-164.693334z" fill="#e6e6e6" p-id="2382"></path></svg>